<svg xmlns="http://www.w3.org/2000/svg" xml:space="preserve" width="32mm" height="32mm" viewBox="0 0 32 32"><path fill="currentColor" d="M13.395903 8.586556v1.383895c1.303796 1.193552 2.59251 2.45112 3.879866 3.678328.222767.211871 1.002664.955366 1.551843 1.47898h.0067v.0067c.426603.406737.552911.52692 1.201994 1.145666v2.720338h-.0026v.759126c.580912.07588 1.120047.290504 1.583366.608232l.001-4.357964c.000913.0021-.0079-.01362-.0083-.01395v-.0031c.000051-.21561-.08829-.421813-.24443-.570508l-6.482708-6.177902c-.640124-.597855-.864789-.65786-1.486731-.657841Zm.001 3.542936-.001 2.38125.000516.000517c-.000533.373886-.000877 1.351127-.001 1.504391.581188.08925 1.117448.317828 1.575614.649056v-3.03143c-.000387-.000371-.0017-.0017-.0021-.0021v-.0021h-.0021c-.289933-.27695-.937021-.894942-1.56993-1.49965zm-.553971 5.099004c-1.580557-.000014-2.8618541 1.281283-2.8618404 2.86184-.0000142 1.580557 1.2812834 2.861855 2.8618404 2.861841 1.580557.000014 2.861855-1.281284 2.861841-2.861841.000014-1.580557-1.281284-2.861854-2.861841-2.86184zm6.719486 3.755843c-1.580355.000271-2.861338 1.281486-2.861324 2.861841-.000014 1.580355 1.280969 2.861569 2.861324 2.86184 1.580557.000014 2.861855-1.281283 2.861841-2.86184.000014-1.580557-1.281284-2.861855-2.861841-2.861841z"></path><path fill="currentColor" d="M5.3526449 2.7533203c-.4345404.000276-.7867305.3226079-.7870321.7203695l.00413 25.7410642c-.0008405.398501.3516839.722161.7870321.722437H27.04434c.435349-.000276.787872-.323936.787032-.722437l.0083-19.038114c.000913.0021-.0079-.01362-.0083-.01395v-.0031c.000051-.2156102-.08829-.4218137-.244429-.5705082l-6.482805-6.1779205c-.039752-.070604-.091507-.1352756-.155546-.1912028l-.308508-.2682007c-.14655-.1274102-.341004-.1986108-.543119-.1984375ZM15.586646 4.1935425h4.090189c.03675.023437.07149.049883.10387.079065l3.716569 3.5429362c.396308.3769303 1.269772 1.2102658 2.760555 2.6313643v1.878438h-.0026v16.169039H6.143811L6.141744 4.1940592h9.444902zm4.031795 2.102714v4.1873415c.000302.434541.352491.78673.787032.787032h4.433838c-.791242-.754011-1.274001-1.213686-1.652613-1.5740642h-1.994193V7.8000407c-.288775-.2758465-.939449-.8974418-1.574064-1.5037842Z"></path></svg>