<svg xmlns="http://www.w3.org/2000/svg" xml:space="preserve" width="32mm" height="32mm" viewBox="0 0 32 32"><g transform="translate(-.20267554 -.34525549)"><path fill-rule="evenodd" d="M19.398947 16.62071c-.267766 0-.530663.02252-.787032.0646v1.415934c.252981-.05902.516368-.09043.786515-.09043.270713 0 .534148.03169.787549.09095v-1.416451c-.256396-.0421-.519196-.0646-.787032-.0646zm2.840137.919841-1.000456 1.000456c.449571.282.830516.664024 1.112594 1.113627l1.000972-1.000973c-.308975-.427866-.685158-.804308-1.11311-1.11311zm-5.693193.0088c-.426999.309964-.802192.687572-1.11001 1.116211l1.000456 1.000455c.280462-.450478.66067-.833597 1.108976-1.117244zm-1.95957 3.161564c-.04208.256369-.0646.519266-.0646.787032 0 .267836.0225.530636.0646.787032h1.416451c-.05926-.253401-.09095-.516836-.09095-.787549 0-.270147.03141-.533534.09043-.786515zm8.206217 0c.05896.252981.08992.516368.08992.786515 0 .270713-.03124.534148-.09043.787549h1.417484c.04206-.256386.06408-.519208.06408-.787032 0-.267755-.02204-.530673-.06408-.787032zm-6.350516 2.626713-1.000456 1.000456c.308803.427952.685244.804135 1.11311 1.11311l1.000973-1.000972c-.449602-.282093-.831627-.663038-1.113627-1.112609zm5.903515.01137c-.28362.448689-.666372.828555-1.117244 1.108976l1.002006 1.002006c.428847-.307826.805722-.683318 1.115694-1.110526zm-2.159558 1.542025c-.253401.0592-.516836.09043-.787549.09043-.270147 0-.533534-.03096-.786515-.08992v1.416968c.256359.04204.519277.06408.787032.06408.267824 0 .530646-.02202.787032-.06408z" style="-inkscape-stroke:none" fill="currentColor"></path><path fill="currentColor" d="M5.3526449 2.7533203c-.4345404.000276-.7867305.3226079-.7870321.7203695l.00413 25.7410642c-.0008405.398501.3516839.722161.7870321.722437H27.04434c.435349-.000276.787872-.323936.787032-.722437l.0083-19.038114c.000913.0021-.0079-.01362-.0083-.01395v-.0031c.000051-.2156102-.08829-.4218137-.244429-.5705082l-6.482805-6.1779205c-.039752-.070604-.091507-.1352756-.155546-.1912028l-.308508-.2682007c-.14655-.1274102-.341004-.1986108-.543119-.1984375ZM15.586646 4.1935425h4.090189c.03675.023437.07149.049883.10387.079065l3.716569 3.5429362c.396308.3769303 1.269772 1.2102658 2.760555 2.6313643v1.878438h-.0026v16.169039H6.143811L6.141744 4.1940592h9.444902zm4.031795 2.102714v4.1873415c.000302.434541.352491.78673.787032.787032h4.433838c-.791242-.754011-1.274001-1.213686-1.652613-1.5740642h-1.994193V7.8000407c-.288775-.2758465-.939449-.8974418-1.574064-1.5037842Z" color="currentColor"></path><circle cx="19.397854" cy="21.496841" r="1.1130133" fill="none" stroke="currentColor" stroke-linejoin="round" stroke-width="1.67438"></circle><path fill-rule="evenodd" d="M11.356226 8.6089385c-.260229.063087-.510419.1469118-.749657.2482085l.333598 1.376075c.231954-.116962.480526-.209542.743068-.2731899.263093-.063781.526578-.095049.786808-.097159l-.33372-1.3765771c-.259097.019493-.519801.059542-.780097.1226455zm2.976902.2248027-.736582 1.2080028c.503355.168142.963582.44966 1.343647.820148l.736962-1.208627c-.401083-.3430263-.855367-.6202414-1.344027-.8195238ZM8.8022748 10.183626c-.3419502.401841-.6176158.857215-.8157798 1.346311l1.2080028.736581c.166433-.503874.445674-.965786.8145322-1.34707zm-1.1595332 3.534245c.019506.259066.059559.519868.1226454.780096.063103.260297.146886.510398.2482085.749657l1.3765773-.33372c-.117294-.232305-.210158-.480858-.273939-.743951-.06365-.262542-.09518-.525915-.09742-.785679zm7.9752074-1.933408c.116903.231968.209046.480647.272694.743189.06378.263092.09549.526472.09766.786685l1.377581-.333964c-.01953-.259078-.06005-.519689-.123151-.779974-.06308-.260217-.146447-.510541-.247703-.749779zm-5.552885 4.048969-.7365822 1.208003c.400937.34315.8554112.620053 1.3440272.819523l.736964-1.208626c-.503408-.168224-.96443-.448439-1.344412-.818914zm5.740007-1.379835c-.169924.50288-.452403.96223-.824515 1.340984l1.209874.737723c.34425-.400198.622049-.853912.822644-1.342124zm-1.73546 2.007414c-.23232.117236-.480981.209653-.744073.273433-.262542.06365-.525809.09561-.78556.09792l.333842 1.377079c.259047-.01954.519756-.06007.779974-.12315.260284-.0631.51052-.146422.749779-.247703z" fill="currentColor"></path><circle cx="9.0071583" cy="15.918281" r="1.1130133" fill="none" stroke="currentColor" stroke-linejoin="round" stroke-width="1.67438" transform="rotate(-13.627159)"></circle></g></svg>