<svg xmlns="http://www.w3.org/2000/svg" width="800" height="800" viewBox="0 0 512 512"><path fill="currentColor" d="M21.4 47.6C15.600006 47.6 11 52.300006 11 58v396.2c.3 8.69999 8.300002 10.7 10.4 10.4h396.2c4.8 0 8.9-3.2 10.1-7.8l82.88179-257.20748c1.5-3.7-.90001-12.9-10.1-13.1h-41.755l-.009.0462h-56.77375l.0288-.14625H104.28179c-4.8 0-8.900006 3.2-10.100005 7.8L31.9 371.3v-303h119.6l26.9 56.1c1.7 3.6 5.4 5.9 9.4 5.9h219.4v.06H428V120c0-5.79999-4.70001-10.4-10.4-10.4H194.4l-26.9-56.1c-1.7-3.599996-5.4-5.9-9.4-5.9zm90.98179 159.79252h374.6L409.5 443.7H34.9Z"/><path fill="currentColor" d="M137.41217 147.72298c-4.7999.0304-8.9 3.2-10.1 7.8l-4.555 12.9525 349.05436-1.00135 2.43375-7.5525c1.5-3.7-.90002-12.9-10.1-13.1l-14.58009-.61761-.009.0463h-56.7735l.0288-.14625z"/></svg>