<?xml version="1.0" encoding="utf-8"?>
<!DOCTYPE svg PUBLIC "-//W3C//DTD SVG 1.0//EN" "http://www.w3.org/TR/2001/REC-SVG-20010904/DTD/svg10.dtd">
<svg version="1.0" xmlns="http://www.w3.org/2000/svg" width="503px" height="533px" viewBox="0 0 503 533" preserveAspectRatio="xMidYMid meet">
 <g fill="currentColor">
  <path d="M156 529.8 c-20.1 -6.8 -52.8 -24.8 -73.8 -40.5 -27.8 -21 -54.9 -51.8 -72.4 -82.3 -5.6 -9.8 -7.1 -13 -6.2 -13 0.3 0 10.8 2.7 23.2 5.9 33.5 8.8 42.3 9.7 51.5 5 4.7 -2.4 9.2 -9.3 10.7 -16.3 0.7 -3.5 1 -42.5 0.8 -123.1 l-0.3 -118 -2.4 -5.3 c-5.5 -12.1 -15.2 -15.4 -34.7 -11.7 -4.4 0.8 -17.2 4 -28.7 7 -11.4 3 -21.4 5.5 -22.2 5.5 -2.2 0 6.2 -16.1 16.3 -31.6 28.9 -44.1 68.5 -78.1 117.8 -101.1 15.2 -7.1 22.3 -9.3 31.8 -10 10.6 -0.7 16.2 1.4 19.2 7.3 1.8 3.7 1.9 7.5 2.4 90.9 l0.5 87 2.5 5 c6.5 13.2 19.7 22 39.2 26.2 11 2.3 35.2 2.3 45.8 0 16.4 -3.7 31 -13.8 36.8 -25.6 l2.7 -5.6 0.5 -87 c0.5 -81.9 0.6 -87.2 2.3 -90.7 2.6 -5.1 8.4 -7.8 16.6 -7.8 8.5 0 15.9 2.1 30.9 8.6 48.1 21 90.4 56.5 120.1 100.8 10.1 15.1 16.1 26.3 16.1 30.2 l0 3.3 -7.2 -2 c-38.8 -10.8 -55.9 -13.7 -64.2 -10.9 -5.4 1.7 -10 6.2 -12.7 12.2 l-2.4 5.3 -0.3 117 c-0.2 84 0 118.7 0.8 123 1.5 8 5.1 13.9 10.3 16.9 9.1 5.3 18.1 4.5 52.1 -4.5 12.5 -3.3 23 -5.8 23.3 -5.5 0.7 0.7 -8.8 17.4 -15.7 27.6 -10.4 15.5 -20.2 27.3 -34.5 41.6 -25.2 25.5 -49.5 42.5 -82 57.6 -23.3 10.8 -39.4 14.2 -46.2 9.9 -7.1 -4.5 -6.7 0.3 -7.3 -97.6 l-0.5 -88 -3.4 -6.3 c-6.8 -12.5 -20.9 -21.5 -38.7 -24.7 -11.9 -2.2 -37.3 -1.6 -47.4 1 -15.7 4.1 -28.7 13.3 -34.6 24.5 l-2.9 5.5 -0.5 86.5 c-0.6 93.1 -0.5 91.2 -6 97.3 -2.6 2.9 -3.3 3.2 -10.1 3.4 -6.2 0.3 -9 -0.2 -16.9 -2.9z"/>
 </g>
</svg>