<svg xmlns="http://www.w3.org/2000/svg" xml:space="preserve" width="32mm" height="32mm" viewBox="0 0 32 32">
    <path fill="currentColor" fill-rule="evenodd" d="M17.942237 15.506286c1.14973.08507 1.851875 2.29554.968574 2.679095l.258602.314677c.524904-.439035 1.288785.320058 1.482978.608142.50871.74547.640265 1.27322.129096 1.592243.888598 1.176103 2.839613 3.94895 3.355865 5.178462.250687.597049-.06536 1.09799-.503881 1.394547l.0022.0033c-.421227.321666-.997764.462417-1.484054.03361-1.000208-.881933-3.004654-3.616636-3.835314-4.834352-.465585.382495-.923496.08915-1.467422-.631034-.210965-.276039-.686516-1.242593-.102823-1.599769l-.215394-.345686c-.601178.665349-2.264787-.477809-2.259465-1.539963 1.470215-.304499 2.849951-1.298821 3.671041-2.853246z"></path>
    <path fill="currentColor" d="m16.336763 5.64219-.05292.043208c-3.464073.910096-8.8534735 3.8670364-6.7401304 8.2939.4562421.9557 1.7617414 1.807274 2.9926064 1.76602 2.459225-.08242 3.510833-1.841578 3.368841-3.416556-.352831-2.492447-3.419769-2.31526-4.318517-.961201-.563581.849093-.315116 1.785547.54093 2.356585.43217.288285 1.620987.265823 1.884197-.653123.264108-.922079-1.416803-1.116331-1.09234-.03738-1.141112-1.077959 1.099275-2.083732 1.683661-.599088.503274 1.278578-1.124609 2.662164-2.670623 2.040243-2.9632334-1.192029-1.348193-6.3212351 2.768157-5.4337182 1.084618.2338521 2.536732 1.6671632 2.677932 3.1571052.08142.859137-.04461 1.993601-.486455 2.74153-1.008266 1.70673-2.759833 2.424472-4.458203 2.299253-4.3465623-.320467-5.7385028-5.150416-4.0096103-7.9618757C9.8073173 7.1202528 13.523576 5.517529 16.336763 5.64219Z"></path>
    <g transform="translate(-.20267554 -.34525549)">
        <path fill="currentColor" d="M5.3526449 2.7533203c-.4345404.000276-.7867305.3226079-.7870321.7203695l.00413 25.7410642c-.0008405.398501.3516839.722161.7870321.722437H27.04434c.435349-.000276.787872-.323936.787032-.722437l.0083-19.038114c.000913.0021-.0079-.01362-.0083-.01395v-.0031c.000051-.2156102-.08829-.4218137-.244429-.5705082l-6.482805-6.1779205c-.039752-.070604-.091507-.1352756-.155546-.1912028l-.308508-.2682007c-.14655-.1274102-.341004-.1986108-.543119-.1984375ZM15.586646 4.1935425h4.090189c.03675.023437.07149.049883.10387.079065l3.716569 3.5429362c.396308.3769303 1.269772 1.2102658 2.760555 2.6313643v1.878438h-.0026v16.169039H6.143811L6.141744 4.1940592h9.444902zm4.031795 2.102714v4.1873415c.000302.434541.352491.78673.787032.787032h4.433838c-.791242-.754011-1.274001-1.213686-1.652613-1.5740642h-1.994193V7.8000407c-.288775-.2758465-.939449-.8974418-1.574064-1.5037842Z"></path>
    </g>
</svg>