<svg xmlns="http://www.w3.org/2000/svg" xml:space="preserve" width="32mm" height="32mm" viewBox="0 0 32 32"><path d="M5.0687387 31.463485H26.935095V9.5932727H5.0648826Z" style="fill:none;stroke:currentColor;stroke-width:1.39479;stroke-linecap:round;stroke-linejoin:round;stroke-dasharray:none;stroke-opacity:1"/><path fill="none" d="M16.000248 1.718454a7.6541501 7.6834768 0 0 0-7.6543662 7.6835583 7.6541501 7.6834768 0 0 0 .00239.061258H23.651741a7.6541501 7.6834768 0 0 0 .0024-.061258 7.6541501 7.6834768 0 0 0-7.653886-7.6835583z" style="fill-opacity:0;fill-rule:evenodd;stroke:currentColor;stroke-width:1.35;stroke-linecap:round;stroke-linejoin:round;stroke-dasharray:none;stroke-opacity:1"/><path fill="none" d="M16.000113 4.3729157a4.9523302 4.971305 0 0 0-4.95247 4.9713577 4.9523302 4.971305 0 0 0 .0016.039635h9.901536a4.9523302 4.971305 0 0 0 .0016-.039635 4.9523302 4.971305 0 0 0-4.95216-4.9713577z" style="fill-opacity:0;fill-rule:evenodd;stroke:currentColor;stroke-width:1.35;stroke-linecap:round;stroke-linejoin:round;stroke-dasharray:none;stroke-opacity:1"/><path d="m5.718514 9.1524129-.9570475.9529131 6.9845865 7.013526a5.4307656 5.4307652 0 0 1 .971-.939478L5.718514 9.1524129zm9.689848.0232544.000517 5.9391727a5.4307656 5.4307652 0 0 1 .578776-.03514 5.4307656 5.4307652 0 0 1 .770495.055293l-.000517-5.9593257h-1.349271zm10.827763.0862997L19.27841 16.19126a5.4307656 5.4307652 0 0 1 .964282.945162l6.946863-6.917924-.95343-.956531zm1.39268 10.569897-6.253366.000517a5.4307656 5.4307652 0 0 1 .042892.677995 5.4307656 5.4307652 0 0 1-.045475.671794l6.258016-.000517-.002067-1.349789zm-17.026351.001551-5.9226363.000516v1.349789l5.9221193-.000517a5.4307656 5.4307652 0 0 1-.045475-.672827 5.4307656 5.4307652 0 0 1 .045992-.676961zm1.054716 3.948596-7.1396163 7.110677.9513631.957048 7.1272132-7.097758a5.4307656 5.4307652 0 0 1-.93896-.969967zm8.648051.01757a5.4307656 5.4307652 0 0 1-.944129.966349l7.029545 7.058484.957048-.95343-7.042464-7.071403zm-3.546037 2.085144a5.4307656 5.4307652 0 0 1-.771529.056844 5.4307656 5.4307652 0 0 1-.577743-.034623l.000517 6.218225h1.349272l-.000517-6.240446z" fill="currentColor"/><ellipse cx="15.999989" cy="20.528379" fill="none" rx="5.4307656" ry="5.4307652" style="fill-opacity:0;fill-rule:evenodd;stroke:currentColor;stroke-width:1.35;stroke-linecap:round;stroke-linejoin:bevel;stroke-dasharray:none;stroke-opacity:1"/><path fill="none" d="M14.464174 18.992565h3.0716283v3.0716283H14.464174z" style="fill-opacity:0;fill-rule:evenodd;stroke:currentColor;stroke-width:1.35;stroke-linecap:round;stroke-linejoin:bevel;stroke-dasharray:none;stroke-opacity:1"/></svg>