<svg xmlns="http://www.w3.org/2000/svg" xml:space="preserve" width="32mm" height="32mm" viewBox="0 0 32 32"><path fill="currentColor" d="M5.3526449 2.7533203c-.4345404.000276-.7867305.3226079-.7870321.7203695l.00413 25.7410642c-.0008405.398501.3516839.722161.7870321.722437H27.04434c.435349-.000276.787872-.323936.787032-.722437l.0083-19.038114c.000913.0021-.0079-.01362-.0083-.01395v-.0031c.000051-.2156102-.08829-.4218137-.244429-.5705082l-6.482805-6.1779205c-.039752-.070604-.091507-.1352756-.155546-.1912028l-.308508-.2682007c-.14655-.1274102-.341004-.1986108-.543119-.1984375ZM15.586646 4.1935425h4.090189c.03675.023437.07149.049883.10387.079065l3.716569 3.5429362c.396308.3769303 1.269772 1.2102658 2.760555 2.6313643v1.878438h-.0026v16.169039H6.143811L6.141744 4.1940592h9.444902zm4.031795 2.102714v4.1873415c.000302.434541.352491.78673.787032.787032h4.433838c-.791242-.754011-1.274001-1.213686-1.652613-1.5740642h-1.994193V7.8000407c-.288775-.2758465-.939449-.8974418-1.574064-1.5037842Z" color="currentColor"/><path fill="none" stroke="currentColor" stroke-width="1.575" d="M18.157031 7.1437499H7.8600052M18.133311 10.311247H7.8362849m17.0228511 3.157559H7.7986984m16.9967326 3.170459H7.7349936M24.75903 19.799298H7.6985927m16.9967323 3.170459H7.6348879m17.0336931 3.18447H7.6081437"/></svg>