<svg xml:space="preserve" width="800" height="800" viewBox="0 0 512 512" version="1.1" xmlns="http://www.w3.org/2000/svg" xmlns:svg="http://www.w3.org/2000/svg"><path fill="currentColor"  d="m 256,48.173703 a 207.8263,207.8263 0 1 0 0,415.652587 207.8263,207.8263 0 0 0 0,-415.652587 z M 127.7322,127.7322 c 18.6719,-19.48371 41.4029,-34.096495 67.38119,-43.026531 -12.17732,14.612787 -22.73101,34.096501 -30.84921,56.015681 h -48.70929 c 3.24728,-4.87093 7.30639,-8.93004 12.17731,-12.98915 z m -25.97828,32.47287 h 56.8275 c -7.30639,25.97829 -12.17732,55.20386 -12.98914,86.05308 H 74.15199 c 1.623643,-31.66105 11.365501,-60.88662 27.60193,-86.05308 z m 0,191.58986 C 85.517491,326.62847 75.775633,297.4029 74.15199,265.74185 h 71.44029 c 0.81182,30.84922 5.68275,60.07479 12.98914,86.05308 z m 25.97828,32.47287 c -4.87092,-4.05911 -8.93003,-8.11822 -12.17731,-12.98915 h 48.70929 a 232.18094,232.18094 0 0 0 30.84921,56.01568 C 169.1351,418.3643 146.4041,403.7515 127.7322,384.2678 Z m 118.52595,53.58021 -8.93004,-0.81182 c -4.87094,-2.43547 -9.74186,-4.87093 -14.61279,-8.93004 -13.80096,-12.17732 -27.60193,-31.66104 -37.34379,-56.8275 h 60.88662 z m 0,-86.05308 h -67.38119 c -8.11821,-25.16646 -12.98914,-54.39203 -13.80097,-86.05308 h 81.18216 z m 0,-105.53678 h -81.18216 c 0.81183,-31.66105 5.68276,-60.88662 13.80097,-86.05308 h 67.38119 z m 0,-105.5368 h -60.88662 l 8.11822,-17.86007 c 8.93003,-17.04825 18.67189,-30.037396 29.22557,-38.967432 4.87093,-4.059108 9.74185,-6.494571 14.61279,-8.930036 l 8.93004,-0.811822 z m 163.98793,19.48372 c 16.23643,25.16646 25.97829,54.39203 27.60193,86.05308 h -71.44029 c -0.81182,-30.84922 -5.68275,-60.07479 -12.98914,-86.05308 z M 384.2678,127.7322 c 4.87092,4.05911 8.93003,8.11822 12.17731,12.98915 H 347.73582 A 232.18094,232.18094 0 0 0 316.88661,84.705669 c 25.97829,8.930036 48.70929,23.542821 67.38119,43.026531 z m -118.52595,-53.58021 8.93004,0.811822 c 4.87094,2.435465 9.74186,4.870928 14.61279,8.930036 13.80096,12.177322 27.60193,31.661042 37.34379,56.827502 h -60.88662 z m 0,86.05308 h 67.38119 c 8.11821,25.16646 12.98914,54.39203 13.80097,86.05308 h -81.18216 z m 0,105.53678 h 81.18216 c -0.81183,31.66105 -5.68276,60.88662 -13.80097,86.05308 h -67.38119 z m 23.54283,162.3643 c -4.87093,4.05911 -9.74185,6.49457 -14.61279,8.93004 l -8.93004,0.81182 v -66.56936 h 60.88662 l -8.11822,17.86007 c -8.93003,17.04825 -18.67189,30.03739 -29.22557,38.96743 z M 384.2678,384.2678 c -18.6719,19.4837 -41.4029,34.0965 -67.38119,43.02653 12.17732,-14.61279 22.73101,-34.0965 30.84921,-56.01568 h 48.70929 c -3.24728,4.87093 -7.30639,8.93004 -12.17731,12.98915 z m 25.97828,-32.47287 h -56.8275 c 7.30639,-25.97829 12.17732,-55.20386 12.98914,-86.05308 h 71.44029 c -1.62364,31.66105 -11.3655,60.88662 -27.60193,86.05308 z" style="stroke-width:0.811822" /></svg>
