<svg xmlns="http://www.w3.org/2000/svg" xml:space="preserve" width="32mm" height="32mm" viewBox="0 0 32 32">
    <path fill="currentColor"
        d="M5.3526 2.7533c-.4345.0003-.7867.3226-.787.7204l.0041 25.741c-.0008.3986.3517.7222.787.7225h21.6876c.4354-.0003.788-.324.787-.7224l.0084-19.0382c.0009.0021-.008-.0136-.0083-.014v-.003a.7876.7876 0 0 0-.2445-.5705l-6.4828-6.178a.7258.7258 0 0 0-.1555-.1911l-.3085-.2682c-.1466-.1275-.341-.1987-.5431-.1985Zm10.234 1.4402h4.0902a.7883.7883 0 0 1 .104.0791l3.7165 3.543c.3963.3769 1.2697 1.2102 2.7605 2.6313v1.8784h-.0026v16.169H6.1438l-.002-24.3002h9.4448zm4.0318 2.1028v4.1873a.7876.7876 0 0 0 .787.787h4.434c-.7913-.754-1.274-1.2137-1.6527-1.574h-1.9942V7.8l-1.574-1.5037Z"
        color="currentColor" />
    <path fill="currentColor"
        d="M9.2325 21.1224v4.1873a.7876.7876 0 0 0 .787.787h4.4339c-.7913-.754-1.274-1.2136-1.6526-1.574h-1.9942v-1.8965l-1.574-1.5038Zm13.9824-.0258v4.1873a.7876.7876 0 0 1-.787.787h-4.434c.7913-.754 1.274-1.2137 1.6527-1.574h1.9942v-1.8966l1.574-1.5037zM9.1815 17.787v-4.1873a.7876.7876 0 0 1 .787-.787h4.4339c-.7913.754-1.274 1.2136-1.6527 1.574h-1.9942v1.8965l-1.574 1.5038zm13.9823.0259v-4.1874a.7876.7876 0 0 0-.787-.787H17.943c.7912.754 1.274 1.2137 1.6526 1.574h1.9942v1.8966l1.574 1.5038z" />
    <path fill="none" stroke="currentColor" stroke-width="1.575" d="m15.7388 16.0886-.01 6.438 3.2787-3.1858z" />
</svg>