<?xml version="1.0" encoding="UTF-8" standalone="no"?>
<svg
   xml:space="preserve"
   width="32mm"
   height="32mm"
   viewBox="0 0 32 32"
   version="1.1"
   id="svg6"
   sodipodi:docname="audio.svg"
   inkscape:version="1.2.1 (9c6d41e410, 2022-07-14)"
   xmlns:inkscape="http://www.inkscape.org/namespaces/inkscape"
   xmlns:sodipodi="http://sodipodi.sourceforge.net/DTD/sodipodi-0.dtd"
   xmlns="http://www.w3.org/2000/svg"
   xmlns:svg="http://www.w3.org/2000/svg"><defs
     id="defs10" /><sodipodi:namedview
     id="namedview8"
     pagecolor="#ffffff"
     bordercolor="#666666"
     borderopacity="1.0"
     inkscape:showpageshadow="2"
     inkscape:pageopacity="0.0"
     inkscape:pagecheckerboard="0"
     inkscape:deskcolor="#d1d1d1"
     inkscape:document-units="mm"
     showgrid="false"
     inkscape:zoom="4"
     inkscape:cx="33.875"
     inkscape:cy="118.75"
     inkscape:window-width="1920"
     inkscape:window-height="1009"
     inkscape:window-x="-8"
     inkscape:window-y="-8"
     inkscape:window-maximized="1"
     inkscape:current-layer="svg6" /><path
     id="path2-6"
     d="m 13.395903,8.586556 v 1.383895 c 1.303796,1.193552 2.59251,2.45112 3.879866,3.678328 0.222767,0.211871 1.002664,0.955366 1.551843,1.47898 h 0.0067 v 0.0067 c 0.426603,0.406737 0.552911,0.52692 1.201994,1.145666 v 2.720338 h -0.0026 v 0.759126 c 0.580912,0.07588 1.120047,0.290504 1.583366,0.608232 l 0.001,-4.357964 c 9.13e-4,0.0021 -0.0079,-0.01362 -0.0083,-0.01395 v -0.0031 c 5.1e-5,-0.21561 -0.08829,-0.421813 -0.24443,-0.570508 L 14.882634,9.244397 C 14.24251,8.646542 14.017845,8.586537 13.395903,8.586556 Z m 10e-4,3.542936 -10e-4,2.38125 5.16e-4,5.17e-4 c -5.33e-4,0.373886 -8.77e-4,1.351127 -10e-4,1.504391 0.581188,0.08925 1.117448,0.317828 1.575614,0.649056 v -3.03143 c -3.87e-4,-3.71e-4 -0.0017,-0.0017 -0.0021,-0.0021 v -0.0021 h -0.0021 c -0.289933,-0.27695 -0.937021,-0.894942 -1.56993,-1.49965 z m -0.553971,5.099004 c -1.580557,-1.4e-5 -2.8618541,1.281283 -2.8618404,2.86184 -1.42e-5,1.580557 1.2812834,2.861855 2.8618404,2.861841 1.580557,1.4e-5 2.861855,-1.281284 2.861841,-2.861841 1.4e-5,-1.580557 -1.281284,-2.861854 -2.861841,-2.86184 z m 6.719486,3.755843 c -1.580355,2.71e-4 -2.861338,1.281486 -2.861324,2.861841 -1.4e-5,1.580355 1.280969,2.861569 2.861324,2.86184 1.580557,1.4e-5 2.861855,-1.281283 2.861841,-2.86184 1.4e-5,-1.580557 -1.281284,-2.861855 -2.861841,-2.861841 z"
     sodipodi:nodetypes="cccccccccccccsccccccccccccccccccccccc" /><path
     fill="currentColor"
     d="M5.3526449 2.7533203c-.4345404.000276-.7867305.3226079-.7870321.7203695l.00413 25.7410642c-.0008405.398501.3516839.722161.7870321.722437H27.04434c.435349-.000276.787872-.323936.787032-.722437l.0083-19.038114c.000913.0021-.0079-.01362-.0083-.01395v-.0031c.000051-.2156102-.08829-.4218137-.244429-.5705082l-6.482805-6.1779205c-.039752-.070604-.091507-.1352756-.155546-.1912028l-.308508-.2682007c-.14655-.1274102-.341004-.1986108-.543119-.1984375ZM15.586646 4.1935425h4.090189c.03675.023437.07149.049883.10387.079065l3.716569 3.5429362c.396308.3769303 1.269772 1.2102658 2.760555 2.6313643v1.878438h-.0026v16.169039H6.143811L6.141744 4.1940592h9.444902zm4.031795 2.102714v4.1873415c.000302.434541.352491.78673.787032.787032h4.433838c-.791242-.754011-1.274001-1.213686-1.652613-1.5740642h-1.994193V7.8000407c-.288775-.2758465-.939449-.8974418-1.574064-1.5037842Z"
     color="currentColor"
     id="path2" /><g
     id="path6195" /><g
     id="path20076"
     transform="translate(-2.4894515)" /><g
     id="path20076-5"
     transform="translate(4.2302797)" /></svg>
