<?xml version="1.0" encoding="UTF-8" standalone="no"?>
<svg
   xml:space="preserve"
   width="32mm"
   height="32mm"
   viewBox="0 0 32 32"
   version="1.1"
   id="svg3344"
   sodipodi:docname="executable.svg"
   inkscape:version="1.2.1 (9c6d41e410, 2022-07-14)"
   xmlns:inkscape="http://www.inkscape.org/namespaces/inkscape"
   xmlns:sodipodi="http://sodipodi.sourceforge.net/DTD/sodipodi-0.dtd"
   xmlns="http://www.w3.org/2000/svg"
   xmlns:svg="http://www.w3.org/2000/svg"><defs
     id="defs3348" /><sodipodi:namedview
     id="namedview3346"
     pagecolor="#ffffff"
     bordercolor="#666666"
     borderopacity="1.0"
     inkscape:showpageshadow="2"
     inkscape:pageopacity="0.0"
     inkscape:pagecheckerboard="0"
     inkscape:deskcolor="#d1d1d1"
     inkscape:document-units="mm"
     showgrid="false"
     showguides="true"
     inkscape:zoom="2.8284271"
     inkscape:cx="-75.660426"
     inkscape:cy="91.216775"
     inkscape:window-width="1920"
     inkscape:window-height="1009"
     inkscape:window-x="-8"
     inkscape:window-y="-8"
     inkscape:window-maximized="1"
     inkscape:current-layer="g19317"><sodipodi:guide
       position="-64.463207,31.150783"
       orientation="0,-1"
       id="guide11446"
       inkscape:locked="false" /></sodipodi:namedview><g
     id="g19317"
     transform="translate(-0.20267554,-0.34525549)"><path
       id="path20941-3"
       style="color:#000000;fill:#000000;fill-rule:evenodd;stroke-linejoin:round;-inkscape-stroke:none"
       d="m 19.398947,16.62071 c -0.267766,0 -0.530663,0.02252 -0.787032,0.0646 v 1.415934 c 0.252981,-0.05902 0.516368,-0.09043 0.786515,-0.09043 0.270713,0 0.534148,0.03169 0.787549,0.09095 v -1.416451 c -0.256396,-0.0421 -0.519196,-0.0646 -0.787032,-0.0646 z m 2.840137,0.919841 -1.000456,1.000456 c 0.449571,0.282 0.830516,0.664024 1.112594,1.113627 l 1.000972,-1.000973 c -0.308975,-0.427866 -0.685158,-0.804308 -1.11311,-1.11311 z m -5.693193,0.0088 c -0.426999,0.309964 -0.802192,0.687572 -1.11001,1.116211 l 1.000456,1.000455 c 0.280462,-0.450478 0.66067,-0.833597 1.108976,-1.117244 z m -1.95957,3.161564 c -0.04208,0.256369 -0.0646,0.519266 -0.0646,0.787032 0,0.267836 0.0225,0.530636 0.0646,0.787032 h 1.416451 c -0.05926,-0.253401 -0.09095,-0.516836 -0.09095,-0.787549 0,-0.270147 0.03141,-0.533534 0.09043,-0.786515 z m 8.206217,0 c 0.05896,0.252981 0.08992,0.516368 0.08992,0.786515 0,0.270713 -0.03124,0.534148 -0.09043,0.787549 h 1.417484 c 0.04206,-0.256386 0.06408,-0.519208 0.06408,-0.787032 0,-0.267755 -0.02204,-0.530673 -0.06408,-0.787032 z m -6.350516,2.626713 -1.000456,1.000456 c 0.308803,0.427952 0.685244,0.804135 1.11311,1.11311 l 1.000973,-1.000972 c -0.449602,-0.282093 -0.831627,-0.663038 -1.113627,-1.112609 z m 5.903515,0.01137 c -0.28362,0.448689 -0.666372,0.828555 -1.117244,1.108976 l 1.002006,1.002006 c 0.428847,-0.307826 0.805722,-0.683318 1.115694,-1.110526 z m -2.159558,1.542025 c -0.253401,0.0592 -0.516836,0.09043 -0.787549,0.09043 -0.270147,0 -0.533534,-0.03096 -0.786515,-0.08992 v 1.416968 c 0.256359,0.04204 0.519277,0.06408 0.787032,0.06408 0.267824,0 0.530646,-0.02202 0.787032,-0.06408 z" /><path
       id="path3332"
       style="color:#000000;fill:currentColor;stroke-width:0.956745;stroke-linecap:round;stroke-linejoin:round"
       d="M 5.3526449,2.7533203 C 4.9181045,2.7535963 4.5659144,3.0759282 4.5656128,3.4736898 l 0.00413,25.7410642 c -8.405e-4,0.398501 0.3516839,0.722161 0.7870321,0.722437 H 27.04434 c 0.435349,-2.76e-4 0.787872,-0.323936 0.787032,-0.722437 l 0.0083,-19.038114 c 9.13e-4,0.0021 -0.0079,-0.01362 -0.0083,-0.01395 v -0.0031 c 5.1e-5,-0.2156102 -0.08829,-0.4218137 -0.244429,-0.5705082 L 21.104138,3.4111613 C 21.064386,3.3405573 21.012631,3.2758857 20.948592,3.2199585 L 20.640084,2.9517578 C 20.493534,2.8243476 20.29908,2.753147 20.096965,2.7533203 Z M 15.586646,4.1935425 h 4.090189 c 0.03675,0.023437 0.07149,0.049883 0.10387,0.079065 l 3.716569,3.5429362 c 0.396308,0.3769303 1.269772,1.2102658 2.760555,2.6313643 v 1.878438 h -0.0026 V 28.494385 H 6.143811 L 6.141744,4.1940592 h 9.444902 z m 4.031795,2.102714 v 4.1873415 c 3.02e-4,0.434541 0.352491,0.78673 0.787032,0.787032 h 4.433838 C 24.048069,10.516619 23.56531,10.056944 23.186698,9.6965658 H 21.192505 V 7.8000407 C 20.90373,7.5241942 20.253056,6.9025989 19.618441,6.2962565 Z"
       sodipodi:nodetypes="ccccccccscccccccccccccccccccccccccc" /><circle
       style="fill:none;fill-opacity:1;fill-rule:evenodd;stroke:#000000;stroke-width:1.67438;stroke-linejoin:round;stroke-dasharray:none;stroke-opacity:1"
       id="path20941-7"
       cx="19.397854"
       cy="21.496841"
       r="1.1130133" /><path
       id="path20941-3-4"
       style="color:#000000;fill:#000000;fill-rule:evenodd;stroke-linejoin:round"
       d="m 11.356226,8.6089385 c -0.260229,0.063087 -0.510419,0.1469118 -0.749657,0.2482085 l 0.333598,1.376075 c 0.231954,-0.116962 0.480526,-0.209542 0.743068,-0.2731899 0.263093,-0.063781 0.526578,-0.095049 0.786808,-0.097159 L 12.136323,8.486296 c -0.259097,0.019493 -0.519801,0.059542 -0.780097,0.1226455 z m 2.976902,0.2248027 -0.736582,1.2080028 c 0.503355,0.168142 0.963582,0.44966 1.343647,0.820148 L 15.677155,9.653265 C 15.276072,9.3102387 14.821788,9.0330236 14.333128,8.8337412 Z M 8.8022748,10.183626 C 8.4603246,10.585467 8.184659,11.040841 7.986495,11.529937 l 1.2080028,0.736581 c 0.166433,-0.503874 0.445674,-0.965786 0.8145322,-1.34707 z m -1.1595332,3.534245 c 0.019506,0.259066 0.059559,0.519868 0.1226454,0.780096 0.063103,0.260297 0.146886,0.510398 0.2482085,0.749657 l 1.3765773,-0.33372 c -0.117294,-0.232305 -0.210158,-0.480858 -0.273939,-0.743951 -0.06365,-0.262542 -0.09518,-0.525915 -0.09742,-0.785679 z m 7.9752074,-1.933408 c 0.116903,0.231968 0.209046,0.480647 0.272694,0.743189 0.06378,0.263092 0.09549,0.526472 0.09766,0.786685 l 1.377581,-0.333964 c -0.01953,-0.259078 -0.06005,-0.519689 -0.123151,-0.779974 -0.06308,-0.260217 -0.146447,-0.510541 -0.247703,-0.749779 z m -5.552885,4.048969 -0.7365822,1.208003 c 0.400937,0.34315 0.8554112,0.620053 1.3440272,0.819523 l 0.736964,-1.208626 c -0.503408,-0.168224 -0.96443,-0.448439 -1.344412,-0.818914 z m 5.740007,-1.379835 c -0.169924,0.50288 -0.452403,0.96223 -0.824515,1.340984 l 1.209874,0.737723 c 0.34425,-0.400198 0.622049,-0.853912 0.822644,-1.342124 z m -1.73546,2.007414 c -0.23232,0.117236 -0.480981,0.209653 -0.744073,0.273433 -0.262542,0.06365 -0.525809,0.09561 -0.78556,0.09792 l 0.333842,1.377079 c 0.259047,-0.01954 0.519756,-0.06007 0.779974,-0.12315 0.260284,-0.0631 0.51052,-0.146422 0.749779,-0.247703 z" /><circle
       style="fill:none;fill-opacity:1;fill-rule:evenodd;stroke:#000000;stroke-width:1.67438;stroke-linejoin:round;stroke-dasharray:none;stroke-opacity:1"
       id="path20941-7-7"
       cx="9.0071583"
       cy="15.918281"
       r="1.1130133"
       transform="rotate(-13.627159)" /></g></svg>
