<svg version="1.1" viewBox="0 0 147 147" xmlns="http://www.w3.org/2000/svg"> <path d="M 7.527 107.746 C 7.606 107.746 10.384 108.46 13.665 109.307 C 22.529 111.635 24.857 111.873 27.291 110.63 C 28.535 109.995 29.725 108.169 30.122 106.317 C 30.184 106.008 30.234 104.656 30.271 102.2 C 30.308 99.745 30.333 96.185 30.344 91.463 C 30.355 86.741 30.352 80.855 30.334 73.747 L 30.254 42.526 L 29.619 41.124 C 28.164 37.922 25.598 37.049 20.438 38.028 C 19.274 38.24 15.888 39.086 12.845 39.88 C 9.829 40.674 7.183 41.335 6.971 41.335 C 6.389 41.335 8.612 37.076 11.284 32.975 C 13.833 29.085 16.696 25.493 19.864 22.206 C 23.032 18.919 26.505 15.938 30.273 13.272 C 34.041 10.606 38.104 8.254 42.452 6.225 C 46.473 4.347 48.352 3.765 50.865 3.579 C 53.67 3.394 55.152 3.95 55.945 5.511 C 56.422 6.49 56.448 7.495 56.58 29.561 L 56.713 52.58 L 57.374 53.903 C 59.094 57.396 62.587 59.724 67.746 60.835 C 70.656 61.444 77.059 61.444 79.864 60.835 C 84.203 59.856 88.066 57.184 89.6 54.062 C 89.838 53.568 90.077 53.074 90.315 52.58 L 90.447 29.561 C 90.579 7.892 90.606 6.49 91.056 5.564 C 91.744 4.214 93.278 3.5 95.448 3.5 C 97.697 3.5 99.655 4.056 103.623 5.775 C 107.865 7.627 111.937 9.906 115.772 12.555 C 119.606 15.203 123.204 18.222 126.497 21.556 C 129.791 24.89 132.781 28.538 135.4 32.445 C 138.072 36.441 139.66 39.404 139.66 40.436 L 139.66 41.309 L 137.755 40.78 C 127.489 37.922 122.964 37.155 120.768 37.896 C 119.34 38.346 118.123 39.536 117.408 41.124 L 116.773 42.526 C 116.747 52.845 116.72 63.163 116.694 73.482 C 116.676 80.89 116.67 86.849 116.678 91.544 C 116.686 96.239 116.708 99.67 116.745 102.022 C 116.782 104.374 116.835 105.647 116.905 106.026 C 117.302 108.143 118.255 109.704 119.631 110.497 C 122.038 111.9 124.42 111.688 133.415 109.307 C 136.723 108.434 139.501 107.772 139.58 107.852 C 139.765 108.037 137.252 112.455 135.426 115.154 C 132.675 119.255 130.082 122.377 126.298 126.161 C 119.631 132.908 113.201 137.406 104.602 141.401 C 98.438 144.258 94.178 145.158 92.379 144.02 C 90.5 142.83 90.606 144.1 90.447 118.197 L 90.315 94.914 L 89.415 93.247 C 87.616 89.939 83.885 87.558 79.176 86.711 C 76.027 86.129 69.307 86.288 66.635 86.976 C 62.481 88.061 59.041 90.495 57.48 93.458 L 56.713 94.914 L 56.58 117.8 C 56.422 142.433 56.448 141.93 54.993 143.544 C 54.305 144.311 54.12 144.391 52.321 144.444 C 50.68 144.523 49.939 144.391 47.849 143.676 L 47.849 143.676 C 42.531 141.877 33.879 137.115 28.323 132.961 C 20.968 127.404 13.797 119.255 9.167 111.185 C 7.686 108.592 7.289 107.746 7.527 107.746" fill="currentColor"> <animate attributeName="d" from="M 7.527 107.746 C 7.606 107.746 10.384 108.46 13.665 109.307 C 22.529 111.635 24.857 111.873 27.291 110.63 C 28.535 109.995 29.725 108.169 30.122 106.317 C 30.184 106.008 30.234 104.656 30.271 102.2 C 30.308 99.745 30.333 96.185 30.344 91.463 C 30.355 86.741 30.352 80.855 30.334 73.747 L 30.254 42.526 L 29.619 41.124 C 28.164 37.922 25.598 37.049 20.438 38.028 C 19.274 38.24 15.888 39.086 12.845 39.88 C 9.829 40.674 7.183 41.335 6.971 41.335 C 6.389 41.335 8.612 37.076 11.284 32.975 C 13.833 29.085 16.696 25.493 19.864 22.206 C 23.032 18.919 26.505 15.938 30.273 13.272 C 34.041 10.606 38.104 8.254 42.452 6.225 C 46.473 4.347 48.352 3.765 50.865 3.579 C 53.67 3.394 55.152 3.95 55.945 5.511 C 56.422 6.49 56.448 7.495 56.58 29.561 L 56.713 52.58 L 57.374 53.903 C 59.094 57.396 62.587 59.724 67.746 60.835 C 70.656 61.444 77.059 61.444 79.864 60.835 C 84.203 59.856 88.066 57.184 89.6 54.062 C 89.838 53.568 90.077 53.074 90.315 52.58 L 90.447 29.561 C 90.579 7.892 90.606 6.49 91.056 5.564 C 91.744 4.214 93.278 3.5 95.448 3.5 C 97.697 3.5 99.655 4.056 103.623 5.775 C 107.865 7.627 111.937 9.906 115.772 12.555 C 119.606 15.203 123.204 18.222 126.497 21.556 C 129.791 24.89 132.781 28.538 135.4 32.445 C 138.072 36.441 139.66 39.404 139.66 40.436 L 139.66 41.309 L 137.755 40.78 C 127.489 37.922 122.964 37.155 120.768 37.896 C 119.34 38.346 118.123 39.536 117.408 41.124 L 116.773 42.526 C 116.747 52.845 116.72 63.163 116.694 73.482 C 116.676 80.89 116.67 86.849 116.678 91.544 C 116.686 96.239 116.708 99.67 116.745 102.022 C 116.782 104.374 116.835 105.647 116.905 106.026 C 117.302 108.143 118.255 109.704 119.631 110.497 C 122.038 111.9 124.42 111.688 133.415 109.307 C 136.723 108.434 139.501 107.772 139.58 107.852 C 139.765 108.037 137.252 112.455 135.426 115.154 C 132.675 119.255 130.082 122.377 126.298 126.161 C 119.631 132.908 113.201 137.406 104.602 141.401 C 98.438 144.258 94.178 145.158 92.379 144.02 C 90.5 142.83 90.606 144.1 90.447 118.197 L 90.315 94.914 L 89.415 93.247 C 87.616 89.939 83.885 87.558 79.176 86.711 C 76.027 86.129 69.307 86.288 66.635 86.976 C 62.481 88.061 59.041 90.495 57.48 93.458 L 56.713 94.914 L 56.58 117.8 C 56.422 142.433 56.448 141.93 54.993 143.544 C 54.305 144.311 54.12 144.391 52.321 144.444 C 50.68 144.523 49.939 144.391 47.849 143.676 L 47.849 143.676 C 42.531 141.877 33.879 137.115 28.323 132.961 C 20.968 127.404 13.797 119.255 9.167 111.185 C 7.686 108.592 7.289 107.746 7.527 107.746" to="M 7.731 108.402 C 6.928 106.748 6.126 105.093 5.323 103.439 C 4.599 101.411 3.817 99.642 3.171 97.261 C 2.57 95.547 2.157 94.053 1.819 92.646 C 1.424 91.128 1.029 89.61 0.634 88.092 C -0.238 85.216 -0.151 81.38 0.534 77.944 C 1.206 74.21 2.353 71.13 3.512 68.067 L 8.354 55.604 L 12.5 46.07 C 13.068 44.874 13.636 43.677 14.204 42.481 C 14.566 41.609 14.927 40.737 15.289 39.865 C 15.528 39.306 15.767 38.747 16.006 38.188 C 16.355 37.286 16.705 36.383 17.054 35.481 C 17.278 34.904 22.79 21.941 24.549 17.578 C 28.617 14.121 29.688 13.055 34.192 10.378 C 37.357 8.496 39.08 8.08 41.671 7.638 C 44.475 7.453 46.177 8.07 47.953 10.146 C 48.191 10.635 48.425 10.96 50.054 13.541 C 51.684 16.121 54.709 20.957 60.53 30.469 L 68.997 44.823 L 70.386 46.972 C 70.849 47.689 71.312 48.406 71.775 49.122 C 73.27 51.847 73.204 51.769 73.686 52.588 C 75.642 49.364 75.076 50.291 75.743 49.109 C 78.297 45.159 80.506 41.274 82.239 38.499 L 88.113 28.617 C 89.194 26.824 90.274 25.03 91.355 23.237 C 94.04 18.95 96.725 14.663 99.41 10.376 C 100.214 9.092 102.685 7.681 104.855 7.681 C 107.104 7.681 108.886 8.178 112.902 10.073 C 116.657 12.311 119.798 14.913 122.878 17.55 C 125.551 21.545 130.867 36.756 131.254 37.713 C 131.359 37.973 131.465 38.232 131.57 38.492 L 132.471 40.582 L 133.489 42.983 C 133.769 43.69 134.049 44.396 134.329 45.103 C 134.69 45.945 135.052 46.788 135.413 47.63 L 139.913 58.355 C 141.605 62.967 143.31 65.554 145.645 72.721 C 147.591 77.708 147.425 84.935 147.143 86.191 C 146.063 90.997 146.748 88.616 146.01 91.48 C 145.759 92.326 145.509 93.173 145.258 94.019 C 144.904 95.224 144.551 96.428 144.197 97.633 C 143.758 98.823 143.319 100.013 142.88 101.203 C 141.708 104.493 140.198 107.333 138.659 110.132 C 136.802 113.472 134.636 116.635 132.344 119.726 C 131.058 121.164 129.772 122.603 128.486 124.041 C 127.157 121.079 125.828 118.117 124.5 115.155 C 123.171 112.193 121.842 109.23 120.513 106.268 C 119.185 103.306 117.856 100.344 116.527 97.382 L 109.62 82.044 L 107.151 76.402 C 100.029 63.955 85.718 96.168 73.361 96.454 C 61.58 95.176 47.894 66.253 40.849 75.487 C 39.636 78.042 38.424 80.597 37.211 83.152 L 30.39 98.109 L 28.1 103.3 C 27.337 105.03 26.574 106.76 25.81 108.49 C 25.047 110.22 24.284 111.951 23.521 113.681 C 22.757 115.411 21.994 117.141 21.231 118.871 L 18.941 124.062 C 17.887 122.874 16.833 121.685 15.779 120.497 C 11.733 116.542 8.621 109.754 7.731 108.402 C 7.731 108.402 7.731 108.402 7.731 108.402" dur="2s" fill="freeze" repeatCount="1" /> </path> </svg>