<?xml version="1.0" encoding="UTF-8" standalone="no"?>
<svg
   xml:space="preserve"
   width="32mm"
   height="32mm"
   viewBox="0 0 32 32"
   version="1.1"
   id="svg3344"
   sodipodi:docname="image.svg"
   inkscape:version="1.2.1 (9c6d41e410, 2022-07-14)"
   xmlns:inkscape="http://www.inkscape.org/namespaces/inkscape"
   xmlns:sodipodi="http://sodipodi.sourceforge.net/DTD/sodipodi-0.dtd"
   xmlns="http://www.w3.org/2000/svg"
   xmlns:svg="http://www.w3.org/2000/svg"><defs
     id="defs3348" /><sodipodi:namedview
     id="namedview3346"
     pagecolor="#ffffff"
     bordercolor="#666666"
     borderopacity="1.0"
     inkscape:showpageshadow="2"
     inkscape:pageopacity="0.0"
     inkscape:pagecheckerboard="0"
     inkscape:deskcolor="#d1d1d1"
     inkscape:document-units="mm"
     showgrid="false"
     showguides="true"
     inkscape:zoom="4"
     inkscape:cx="105.625"
     inkscape:cy="72.75"
     inkscape:window-width="1920"
     inkscape:window-height="1009"
     inkscape:window-x="-8"
     inkscape:window-y="-8"
     inkscape:window-maximized="1"
     inkscape:current-layer="svg3344"><sodipodi:guide
       position="-64.463207,31.150783"
       orientation="0,-1"
       id="guide11446"
       inkscape:locked="false" /></sodipodi:namedview><path
     id="rect11409"
     style="fill-rule:evenodd;stroke-width:1.29777;stroke-linejoin:round"
     d="m 17.942237,15.506286 c 1.14973,0.08507 1.851875,2.29554 0.968574,2.679095 l 0.258602,0.314677 c 0.524904,-0.439035 1.288785,0.320058 1.482978,0.608142 0.50871,0.74547 0.640265,1.27322 0.129096,1.592243 0.888598,1.176103 2.839613,3.94895 3.355865,5.178462 0.250687,0.597049 -0.06536,1.09799 -0.503881,1.394547 l 0.0022,0.0033 c -0.421227,0.321666 -0.997764,0.462417 -1.484054,0.03361 -1.000208,-0.881933 -3.004654,-3.616636 -3.835314,-4.834352 -0.465585,0.382495 -0.923496,0.08915 -1.467422,-0.631034 -0.210965,-0.276039 -0.686516,-1.242593 -0.102823,-1.599769 l -0.215394,-0.345686 c -0.601178,0.665349 -2.264787,-0.477809 -2.259465,-1.539963 1.470215,-0.304499 2.849951,-1.298821 3.671041,-2.853246 z" /><path
     id="path4527"
     style="color:#000000;fill:#000000;stroke-width:0.939469"
     d="m 16.336763,5.64219 -0.05292,0.043208 c -3.464073,0.910096 -8.8534735,3.8670364 -6.7401304,8.2939 0.4562421,0.9557 1.7617414,1.807274 2.9926064,1.76602 2.459225,-0.08242 3.510833,-1.841578 3.368841,-3.416556 -0.352831,-2.492447 -3.419769,-2.31526 -4.318517,-0.961201 -0.563581,0.849093 -0.315116,1.785547 0.54093,2.356585 0.43217,0.288285 1.620987,0.265823 1.884197,-0.653123 0.264108,-0.922079 -1.416803,-1.116331 -1.09234,-0.03738 -1.141112,-1.077959 1.099275,-2.083732 1.683661,-0.599088 0.503274,1.278578 -1.124609,2.662164 -2.670623,2.040243 -2.9632334,-1.192029 -1.348193,-6.3212351 2.768157,-5.4337182 1.084618,0.2338521 2.536732,1.6671632 2.677932,3.1571052 0.08142,0.859137 -0.04461,1.993601 -0.486455,2.74153 -1.008266,1.70673 -2.759833,2.424472 -4.458203,2.299253 C 8.0873367,16.918501 6.6953962,12.088552 8.4242887,9.2770923 9.8073173,7.1202528 13.523576,5.517529 16.336763,5.64219 Z"
     sodipodi:nodetypes="ccsscssscsssssscc" /><g
     id="g19317"
     transform="translate(-0.20267554,-0.34525549)"><path
       id="path3332"
       style="color:#000000;fill:currentColor;stroke-width:0.956745;stroke-linecap:round;stroke-linejoin:round"
       d="M 5.3526449,2.7533203 C 4.9181045,2.7535963 4.5659144,3.0759282 4.5656128,3.4736898 l 0.00413,25.7410642 c -8.405e-4,0.398501 0.3516839,0.722161 0.7870321,0.722437 H 27.04434 c 0.435349,-2.76e-4 0.787872,-0.323936 0.787032,-0.722437 l 0.0083,-19.038114 c 9.13e-4,0.0021 -0.0079,-0.01362 -0.0083,-0.01395 v -0.0031 c 5.1e-5,-0.2156102 -0.08829,-0.4218137 -0.244429,-0.5705082 L 21.104138,3.4111613 C 21.064386,3.3405573 21.012631,3.2758857 20.948592,3.2199585 L 20.640084,2.9517578 C 20.493534,2.8243476 20.29908,2.753147 20.096965,2.7533203 Z M 15.586646,4.1935425 h 4.090189 c 0.03675,0.023437 0.07149,0.049883 0.10387,0.079065 l 3.716569,3.5429362 c 0.396308,0.3769303 1.269772,1.2102658 2.760555,2.6313643 v 1.878438 h -0.0026 V 28.494385 H 6.143811 L 6.141744,4.1940592 h 9.444902 z m 4.031795,2.102714 v 4.1873415 c 3.02e-4,0.434541 0.352491,0.78673 0.787032,0.787032 h 4.433838 C 24.048069,10.516619 23.56531,10.056944 23.186698,9.6965658 H 21.192505 V 7.8000407 C 20.90373,7.5241942 20.253056,6.9025989 19.618441,6.2962565 Z"
       sodipodi:nodetypes="ccccccccscccccccccccccccccccccccccc" /><circle
       id="path16321"
       style="fill:#ff0000;stroke:#000000;stroke-width:0.264583"
       cx="11.517303"
       cy="10.306497"
       r="0.036796246" /></g></svg>
