<?xml version="1.0" encoding="UTF-8" standalone="no"?>
<svg
   xml:space="preserve"
   width="32mm"
   height="32mm"
   viewBox="0 0 32 32"
   version="1.1"
   id="svg3344"
   sodipodi:docname="text.svg"
   inkscape:version="1.2.1 (9c6d41e410, 2022-07-14)"
   xmlns:inkscape="http://www.inkscape.org/namespaces/inkscape"
   xmlns:sodipodi="http://sodipodi.sourceforge.net/DTD/sodipodi-0.dtd"
   xmlns="http://www.w3.org/2000/svg"
   xmlns:svg="http://www.w3.org/2000/svg"><defs
     id="defs3348" /><sodipodi:namedview
     id="namedview3346"
     pagecolor="#ffffff"
     bordercolor="#666666"
     borderopacity="1.0"
     inkscape:showpageshadow="2"
     inkscape:pageopacity="0.0"
     inkscape:pagecheckerboard="0"
     inkscape:deskcolor="#d1d1d1"
     inkscape:document-units="mm"
     showgrid="false"
     showguides="true"
     inkscape:zoom="4"
     inkscape:cx="56.75"
     inkscape:cy="52.75"
     inkscape:window-width="1920"
     inkscape:window-height="1009"
     inkscape:window-x="-8"
     inkscape:window-y="-8"
     inkscape:window-maximized="1"
     inkscape:current-layer="g19317"><sodipodi:guide
       position="-64.463207,31.150783"
       orientation="0,-1"
       id="guide11446"
       inkscape:locked="false" /></sodipodi:namedview><g
     id="g19317"><path
       id="path3332"
       style="color:#000000;fill:currentColor;stroke-width:0.956745;stroke-linecap:round;stroke-linejoin:round"
       d="M 5.3526449,2.7533203 C 4.9181045,2.7535963 4.5659144,3.0759282 4.5656128,3.4736898 l 0.00413,25.7410642 c -8.405e-4,0.398501 0.3516839,0.722161 0.7870321,0.722437 H 27.04434 c 0.435349,-2.76e-4 0.787872,-0.323936 0.787032,-0.722437 l 0.0083,-19.038114 c 9.13e-4,0.0021 -0.0079,-0.01362 -0.0083,-0.01395 v -0.0031 c 5.1e-5,-0.2156102 -0.08829,-0.4218137 -0.244429,-0.5705082 L 21.104138,3.4111613 C 21.064386,3.3405573 21.012631,3.2758857 20.948592,3.2199585 L 20.640084,2.9517578 C 20.493534,2.8243476 20.29908,2.753147 20.096965,2.7533203 Z M 15.586646,4.1935425 h 4.090189 c 0.03675,0.023437 0.07149,0.049883 0.10387,0.079065 l 3.716569,3.5429362 c 0.396308,0.3769303 1.269772,1.2102658 2.760555,2.6313643 v 1.878438 h -0.0026 V 28.494385 H 6.143811 L 6.141744,4.1940592 h 9.444902 z m 4.031795,2.102714 v 4.1873415 c 3.02e-4,0.434541 0.352491,0.78673 0.787032,0.787032 h 4.433838 C 24.048069,10.516619 23.56531,10.056944 23.186698,9.6965658 H 21.192505 V 7.8000407 C 20.90373,7.5241942 20.253056,6.9025989 19.618441,6.2962565 Z"
       sodipodi:nodetypes="ccccccccscccccccccccccccccccccccccc" /><path
       style="fill:none;stroke:#000000;stroke-width:1.575;stroke-linecap:butt;stroke-linejoin:miter;stroke-dasharray:none;stroke-opacity:1"
       d="M 18.157031,7.1437499 H 7.8600052"
       id="path16116"
       sodipodi:nodetypes="cc" /><path
       style="fill:none;stroke:#000000;stroke-width:1.575;stroke-linecap:butt;stroke-linejoin:miter;stroke-dasharray:none;stroke-opacity:1"
       d="M 18.133311,10.311247 H 7.8362849"
       id="path16116-6-6"
       sodipodi:nodetypes="cc" /><path
       style="fill:none;stroke:#000000;stroke-width:1.575;stroke-linecap:butt;stroke-linejoin:miter;stroke-dasharray:none;stroke-opacity:1"
       d="M 24.859136,13.468806 H 7.7986984"
       id="path16116-6-6-6"
       sodipodi:nodetypes="cc" /><path
       style="fill:none;stroke:#000000;stroke-width:1.575;stroke-linecap:butt;stroke-linejoin:miter;stroke-dasharray:none;stroke-opacity:1"
       d="M 24.795431,16.639265 H 7.7349936"
       id="path16116-6-6-6-3"
       sodipodi:nodetypes="cc" /><path
       style="fill:none;stroke:#000000;stroke-width:1.575;stroke-linecap:butt;stroke-linejoin:miter;stroke-dasharray:none;stroke-opacity:1"
       d="M 24.75903,19.799298 H 7.6985927"
       id="path16116-6-6-6-6"
       sodipodi:nodetypes="cc" /><path
       style="fill:none;stroke:#000000;stroke-width:1.575;stroke-linecap:butt;stroke-linejoin:miter;stroke-dasharray:none;stroke-opacity:1"
       d="M 24.695325,22.969757 H 7.6348879"
       id="path16116-6-6-6-3-6"
       sodipodi:nodetypes="cc" /><path
       style="fill:none;stroke:#000000;stroke-width:1.575;stroke-linecap:butt;stroke-linejoin:miter;stroke-dasharray:none;stroke-opacity:1"
       d="M 24.668581,26.154227 H 7.6081437"
       id="path16116-6-6-6-0"
       sodipodi:nodetypes="cc" /></g></svg>
