<?xml version="1.0" encoding="UTF-8" standalone="no"?>
<svg
   xml:space="preserve"
   width="32mm"
   height="32mm"
   viewBox="0 0 32 32"
   version="1.1"
   id="svg6"
   sodipodi:docname="video.svg"
   inkscape:version="1.2.1 (9c6d41e410, 2022-07-14)"
   xmlns:inkscape="http://www.inkscape.org/namespaces/inkscape"
   xmlns:sodipodi="http://sodipodi.sourceforge.net/DTD/sodipodi-0.dtd"
   xmlns="http://www.w3.org/2000/svg"
   xmlns:svg="http://www.w3.org/2000/svg"><defs
     id="defs10" /><sodipodi:namedview
     id="namedview8"
     pagecolor="#ffffff"
     bordercolor="#666666"
     borderopacity="1.0"
     inkscape:showpageshadow="2"
     inkscape:pageopacity="0.0"
     inkscape:pagecheckerboard="0"
     inkscape:deskcolor="#d1d1d1"
     inkscape:document-units="mm"
     showgrid="false"
     inkscape:zoom="4"
     inkscape:cx="4.375"
     inkscape:cy="74.75"
     inkscape:window-width="1920"
     inkscape:window-height="1009"
     inkscape:window-x="-8"
     inkscape:window-y="-8"
     inkscape:window-maximized="1"
     inkscape:current-layer="svg6" /><g
     id="g26912" /><g
     id="path6195" /><g
     id="path20076"
     transform="translate(-2.4894515)" /><g
     id="path20076-5"
     transform="translate(4.2302797)" /><path
     fill="currentColor"
     d="M 5.3526449,2.7533203 C 4.9181045,2.7535963 4.5659144,3.0759282 4.5656128,3.4736898 l 0.00413,25.7410642 c -8.405e-4,0.398501 0.3516839,0.722161 0.7870321,0.722437 H 27.04434 c 0.435349,-2.76e-4 0.787872,-0.323936 0.787032,-0.722437 l 0.0083,-19.038114 c 9.13e-4,0.0021 -0.0079,-0.01362 -0.0083,-0.01395 v -0.0031 c 5.1e-5,-0.2156102 -0.08829,-0.4218137 -0.244429,-0.5705082 L 21.104138,3.4111613 C 21.064386,3.3405573 21.012631,3.2758857 20.948592,3.2199585 L 20.640084,2.9517578 C 20.493534,2.8243476 20.29908,2.753147 20.096965,2.7533203 Z M 15.586646,4.1935425 h 4.090189 c 0.03675,0.023437 0.07149,0.049883 0.10387,0.079065 l 3.716569,3.5429362 c 0.396308,0.3769303 1.269772,1.2102658 2.760555,2.6313643 v 1.878438 h -0.0026 V 28.494385 H 6.143811 L 6.141744,4.1940592 h 9.444902 z m 4.031795,2.102714 v 4.1873415 c 3.02e-4,0.434541 0.352491,0.78673 0.787032,0.787032 h 4.433838 C 24.048069,10.516619 23.56531,10.056944 23.186698,9.6965658 H 21.192505 V 7.8000407 C 20.90373,7.5241942 20.253056,6.9025989 19.618441,6.2962565 Z"
     color="currentColor"
     id="path2"
     sodipodi:nodetypes="ccccccccscccccccccccccccccccccccccc" /><path
     id="path2-1"
     d="m 9.2325112,21.122395 v 4.187342 c 3.02e-4,0.43454 0.3524922,0.78673 0.7870318,0.787032 h 4.433838 C 13.66214,25.342759 13.17938,24.883082 12.800769,24.522705 H 10.806575 V 22.626179 C 10.517801,22.350333 9.8671264,21.728739 9.2325112,21.122395 Z" /><path
     id="path2-1-6"
     d="m 23.214861,21.096557 v 4.187342 c -3.02e-4,0.43454 -0.352492,0.78673 -0.787032,0.787032 h -4.433837 c 0.791241,-0.75401 1.274001,-1.213687 1.652612,-1.574064 h 1.994194 v -1.896526 c 0.288773,-0.275846 0.939448,-0.89744 1.574063,-1.503784 z" /><path
     id="path2-1-3"
     d="m 9.1814817,17.787028 v -4.187342 c 3.02e-4,-0.43454 0.352492,-0.78673 0.787031,-0.787032 h 4.4338383 c -0.791241,0.75401 -1.274001,1.213687 -1.652612,1.574064 h -1.994194 v 1.896526 c -0.288774,0.275846 -0.9394483,0.89744 -1.5740633,1.503784 z" /><path
     id="path2-1-6-0"
     d="m 23.163831,17.812866 v -4.187342 c -3.02e-4,-0.43454 -0.352492,-0.78673 -0.787032,-0.787032 h -4.433837 c 0.791241,0.75401 1.274001,1.213687 1.652612,1.574064 h 1.994194 v 1.896526 c 0.288773,0.275846 0.939448,0.89744 1.574063,1.503784 z" /><path
     style="fill:none;stroke:#000000;stroke-width:1.575;stroke-linecap:butt;stroke-linejoin:miter;stroke-dasharray:none;stroke-opacity:1"
     d="m 15.738757,16.287057 -0.0099,6.239505 3.278663,-3.185763 z"
     id="path27174"
     sodipodi:nodetypes="cccc" /></svg>
